<?xml version="1.0" encoding="UTF-8"?>
<svg id="Layer_1" xmlns="http://www.w3.org/2000/svg" version="1.1" viewBox="0 0 841.89 595.28">
  <!-- Generator: Adobe Illustrator 30.0.0, SVG Export Plug-In . SVG Version: 2.1.1 Build 123)  -->
  <defs>
    <style>
      .st0 {
        fill: #fff;
      }
    </style>
  </defs>
  <path d="M690.22,309.19c-6.21-.35-12.6-.76-18.36-1.13l-1.73-.11.02-24.14c0-4.75,0-8.51.1-12.08.23-8.5-6.19-15.71-14.66-16.46-9.04-.8-13.55-1.19-22.6-1.91-.43-.03-.86-.05-1.29-.05-4.1,0-8.06,1.57-11.06,4.4-.54.51-1.02,1.06-1.48,1.63-7.98-5.71-18.22-9.34-30.41-10.56l.02-18.25c0-4.95-2.23-9.4-5.76-12.36l.02-12.58c2.93-2.99,4.59-7.02,4.6-11.24l.02-19.42c0-8.34-6.36-15.31-14.67-16.04-19.78-1.74-39.87-3.16-59.69-4.22-.29-.02-.57-.02-.86-.02-4.17,0-8.2,1.62-11.21,4.55-.16.16-.31.34-.46.5-5.95-3.58-14.17-6.46-25.29-6.63-16.74-.53-25.44-.7-42.21-.81h-.11c-.85,0-1.69.09-2.52.22-.85-.14-1.72-.24-2.6-.25-3.28-.01-6.01-.02-8.56-.02-5.18,0-9.6.03-16.25.1-6.33.06-12.03,3.84-14.57,9.64l-.17.38c-.06-.13-.13-.27-.2-.41-2.7-5.55-8.32-9.06-14.47-9.06-.15,0-.3,0-.45,0-10.19.28-15.46.46-25.6.89-.88.04-1.73.17-2.57.34-.64-.08-1.28-.13-1.93-.13-.24,0-.49,0-.73.02-9.06.41-13.74.65-22.77,1.18-5.55.32-10.29,3.43-12.93,7.9-.48-.61-1.01-1.19-1.58-1.74-3-2.85-6.97-4.43-11.09-4.43-.4,0-.79.01-1.19.04-9.04.67-13.71,1.05-22.74,1.83-8.47.74-14.91,7.95-14.68,16.45.1,3.67.1,7.45.11,12.78l.06,45.94c0,6.44.01,11.1-.08,15.5,0,.07,0,.14,0,.21-10.72,2.55-19.48,7.47-25.96,14.43-7.88-7.15-18.97-10.78-33.04-10.78-2.62,0-5.41.12-8.29.37-33.16,2.81-52.53,23.35-51.85,54.94v2.78c-.4,15.07,3.73,27.19,12.3,36.01,8.79,9.06,21.27,13.65,37.08,13.65,1.56,0,3.17-.05,4.79-.14,18.3-1.03,31.52-6.14,40.37-15.59,4.94,4.59,10.89,7.93,17.8,9.99-1.53,2.52-2.39,5.49-2.32,8.65.1,4.77.11,7.25.11,12.73l.04,34.11c0,7.06.01,9.19-.08,14.66-.07,4.31,1.59,8.47,4.62,11.55,3.02,3.07,7.15,4.8,11.47,4.8,0,0,22.12,0,22.12,0,2.38,0,4.71-.53,6.82-1.52,2.11.99,4.44,1.52,6.82,1.52,0,0,22.12,0,22.12,0,2.38,0,4.71-.53,6.82-1.52,2.11.99,4.44,1.52,6.82,1.52,0,0,22.11,0,22.11,0,3.1,0,6.11-.91,8.68-2.56,6.29,3.22,13.02,3.85,17.31,3.85,5.13,0,9.79-.75,13.96-2.25,1.71.62,3.55.95,5.47.95h21.21c3.14,0,6.18-.93,8.77-2.62,7.88,3.35,17.18,3.92,26.28,3.92,7.99,0,17.09-.72,24.93-4.14,2.67,1.84,5.84,2.85,9.13,2.85,0,0,22.11,0,22.11,0,4.32,0,8.46-1.74,11.49-4.83.09-.09.17-.19.26-.29,5.98,3.56,14.28,6.41,25.57,6.41h.82c18.97-.23,29.72-7.4,35.41-13.38,5.22-5.5,11.32-15.42,10.69-31.41-.05-1.36-.27-2.67-.64-3.92.25-1,.4-2.03.45-3.1.77-16.18-5.19-26.2-10.33-31.75-.41-.44-.84-.87-1.26-1.29.19,0,.38,0,.57,0,12.2,0,22.47-2.51,30.68-7.46,2.69,4.45,7.48,7.52,13.06,7.77,19.08.84,38.42,1.81,57.48,2.88.3.02.6.03.9.03,4.1,0,8.06-1.57,11.05-4.4,3.21-3.04,5.04-7.27,5.04-11.69v-20.12c0-8.53-6.66-15.58-15.17-16.06Z"/>
  <path class="st0" d="M271.82,233.93c-.02-15.31-.04-30.63-.06-45.94,0-5.28-.01-9.29-.12-13.19,9.01-.79,13.51-1.15,22.52-1.82-.1,3.94-.09,7.88-.08,13.09,0,5.32,0,7.98.02,13.29,10.69-.71,16.03-1.03,26.73-1.59,0-5.27,0-7.9-.01-13.17,0-5.35,0-9.42-.11-13.38,9.02-.53,13.53-.76,22.56-1.17-.1,3.98-.09,7.96-.09,13.23.01,15.63.03,31.26.04,46.89,0,6.78,0,11.51.11,16.24-9.02.29-13.53.46-22.54.83.1-4.61.09-9.32.08-16.07,0-5.05,0-7.58-.01-12.63-10.69.51-16.04.8-26.72,1.45,0,4.98,0,7.47.01,12.44,0,6.7.01,11.38.12,16.05-9.01.47-13.51.73-22.52,1.29.09-4.55.09-9.19.08-15.85Z"/>
  <path class="st0" d="M377.33,222.86c-9.39-17.81-19.01-35.5-28.89-53.05,10.14-.43,15.22-.61,25.36-.89,3.48,7.16,5.22,10.75,8.7,17.94,2.2,4.49,4.4,9.1,6.7,14.04,2.1-5.01,4.09-9.58,6.09-14.05,3.23-7.4,4.85-11.1,8.09-18.5,9.83-.1,14.75-.12,24.58-.08-9.67,17.69-19.02,35.56-28.26,53.47,0,3.12,0,4.67,0,7.79,0,7.03,0,11.69.1,15.69-9.02.08-13.53.14-22.56.3.1-3.89.1-8.65.09-15.67,0-2.81,0-4.21,0-7.02Z"/>
  <path class="st0" d="M455.69,245.41c-9.02-.13-13.53-.17-22.56-.22.1-4.55.1-9.2.1-15.81,0-16.02,0-32.04,0-48.07,0-5.2,0-9.2-.1-12.99,16.78.12,25.18.28,41.95.81,19.11.25,29.85,10.95,29.13,30.18,0,.13,0,.19,0,.32,1.77,18.45-11.68,29.58-29.17,28.32-4.65-.34-12.48-.28-19.46-.39,0,.82,0,1.23,0,2.05,0,6.49,0,11.14.09,15.79ZM455.61,188.75c0,7.44,0,11.16,0,18.6,5.79.1,8.69.16,14.48.3,8.49.21,11.38-2.06,11.39-8.96,0-.09,0-.13,0-.22,0-6.9-2.89-9.17-11.38-9.39-5.79-.15-8.69-.22-14.48-.33Z"/>
  <path class="st0" d="M512.52,184.14c0-5.36,0-9.55-.09-13.41,19.73,1.05,39.45,2.45,59.13,4.18,0,7.77-.01,11.65-.02,19.42-6.97-.67-24.41-1.97-35.39-2.65-.52-.03-.78-.05-1.3-.08,0,3.46,0,5.19,0,8.64,12.84.76,19.26,1.2,32.1,2.17,0,7.32-.01,10.97-.02,18.29-4.98-.46-20.83-1.48-28.8-1.93-1.32-.07-1.97-.11-3.29-.18,0,3.88,0,5.83-.01,9.71.92.05,1.38.07,2.29.12,10.97.58,27.61,1.63,35.58,2.08,0,7.77-.01,11.65-.02,19.41-20.09-1.26-40.19-2.28-60.31-3.04.1-4.5.11-9.33.11-16.09.01-15.55.03-31.11.04-46.66Z"/>
  <path class="st0" d="M152.61,311.61v-3.19c-.59-24.38,13.52-36.72,37.13-38.73,21.96-1.86,38.05,4.23,36.23,29.7-8.88.7-13.31,1.06-22.18,1.82,0-9.03-1.01-12.37-14.03-11.36-11.73.91-14.21,3.97-14.2,18.21,0,.16,0,.24,0,.4,0,14.24,2.49,17,14.23,16.31,12.73-.75,14.22-4.5,14.21-13.33,8.87-.38,13.31-.56,22.19-.88,1.7,25.05-14.47,33.04-36.38,34.27-23.43,1.31-37.92-8.92-37.18-33.24Z"/>
  <path class="st0" d="M232.74,306.28c0-1.33,0-2,0-3.33-.65-24.77,12.92-37.89,37.39-39.15,24.17-1.25,38.67,10.05,37.51,35.78,0,1.37,0,2.05,0,3.42,1.15,25.76-13.3,37.72-37.42,38.69-24.33.98-38.17-10.69-37.48-35.41ZM284.62,302.35c0-.17,0-.25,0-.42-.02-14.95-2.41-17.83-14.47-17.22-11.95.6-14.44,3.71-14.42,18.51,0,.17,0,.25,0,.42.02,14.8,2.51,17.73,14.46,17.27,12.05-.46,14.44-3.6,14.42-18.55Z"/>
  <path class="st0" d="M316.72,323.36c-.02-15.76-.03-31.52-.05-47.28,0-5.24,0-9.2-.11-13.05,13.44-.53,20.16-.76,33.61-1.12,2.68,7.98,4.02,11.98,6.7,19.98,4.2,12.63,8.69,26.58,11.39,35.29-.11-12.84-.32-27.74-.32-32.48,0-7.56,0-14.68-.11-23.2,8.14-.16,12.21-.23,20.36-.33-.1,3.89-.1,8-.09,13.3,0,15.72.01,31.43.02,47.15,0,6.81,0,11.68.11,16.33-13.44.09-20.16.16-33.6.35-3.28-9.74-4.92-14.6-8.19-24.31-4.2-12.62-7.1-22.22-9.9-31.16.11,12.14.32,28.24.33,32.65,0,7.52.01,14.5.12,23.1-8.13.14-12.2.22-20.33.4.1-4.49.09-9.09.08-15.62Z"/>
  <path class="st0" d="M418.11,282.73c-2.31,0-3.47,0-5.79.01-3.99.01-10.18.04-18.16.21,0-8.74,0-13.11,0-21.85,23.42-.15,46.83-.08,70.25.22,0,8.73,0,13.1-.01,21.83-5.99-.19-11.17-.25-15.16-.29-3.51-.03-5.27-.05-8.78-.07,0,15.5,0,23.25,0,38.75,0,6.82,0,11.58.1,16.34-9.01-.04-13.52-.04-22.53-.04.1-4.66.1-9.42.1-16.24,0-15.55,0-23.32,0-38.87Z"/>
  <path class="st0" d="M470.49,274.93c0-5.4,0-9.61-.09-13.5,17.16.32,25.74.55,42.89,1.15,17.23-.78,30.64,10.04,29.08,28.13,0,.13,0,.19,0,.32-.01,12.89-3.11,20.33-11.09,24.16,1.49,2.82,2.98,5.75,4.47,8.88,2.49,5.3,5.17,10.59,7.66,15.34-9.49-.24-14.23-.35-23.72-.55-1.19-2.81-2.79-6.38-4.58-10.06-1.83-3.73-2.75-5.59-4.58-9.33-7.1-.16-10.65-.23-17.75-.36,0,1.21,0,1.81,0,3.01,0,6.78,0,11.63.09,16.26-9.01-.14-13.52-.19-22.53-.29.1-4.53.1-9.39.11-16.2,0-15.66.02-31.31.03-46.97ZM492.83,281.97c0,6.93,0,10.4-.01,17.33,6.02.13,9.04.2,15.06.35,8.87.23,11.77-1.82,11.77-8.46,0-.09,0-.13,0-.21,0-6.11-2.88-8.35-11.36-8.6-6.18-.18-9.27-.26-15.46-.41Z"/>
  <path class="st0" d="M547.83,303.47c0-1.36,0-2.04,0-3.4-.69-24.82,12.63-37.31,37.5-35.45,23.63,1.77,38.5,13.66,37.38,39.12,0,1.32,0,1.98,0,3.31,1.18,25.5-14.04,35.68-37.47,35.08-24.79-.64-38.09-13.71-37.41-38.66ZM599.73,304.31c0-.17,0-.25,0-.42.02-14.73-2.36-17.82-14.41-18.48-11.95-.66-14.44,2.19-14.46,17.08,0,.17,0,.25,0,.42-.02,14.89,2.47,18.02,14.42,18.52,12.05.5,14.44-2.4,14.46-17.13Z"/>
  <path class="st0" d="M631.63,342.48c.1-4.32.11-9.05.11-15.43.02-17.99.03-26.99.04-44.98,0-5.04,0-8.85-.09-12.67,8.99.72,13.48,1.1,22.46,1.9-.1,3.76-.11,7.52-.11,12.5-.01,15.71-.02,23.56-.03,39.27,4.89.29,7.34.45,12.23.75,6.86.43,15.11.98,23.05,1.43v20.12c-19.22-1.08-38.45-2.05-57.68-2.89Z"/>
  <path class="st0" d="M262.75,376.68c0-5.47-.01-8.1-.12-13.05,8.49-.19,12.73-.29,21.22-.45.08,4.37.13,6.55.21,10.92,3.38-7.58,8.65-12.37,18.81-12.55,10.16-.18,15.35,3.6,17.15,11.39,3.48-7.43,8.86-11.8,18.62-11.92,13.45-.16,17.64,6.17,17.65,18.88,0,6.14-.09,12.39-.08,22.09,0,2.93,0,4.4,0,7.33,0,5.39,0,10.45.11,16.38-8.84,0-13.27,0-22.11,0,.1-4.94.09-9.23.08-16,0-7.43-.01-11.15-.02-18.58,0-6.44-1.5-8.26-6.58-8.21-5.78.05-7.27,1.89-7.26,10.24,0,6.59.01,9.89.02,16.49,0,5.35.01,10.28.12,16.06-8.84,0-13.27,0-22.11,0,.09-4.9.09-9.26.08-15.86,0-7.37-.01-11.05-.02-18.42,0-6.39-1.5-8.18-6.58-8.12-5.78.07-7.27,1.9-7.26,10.17,0,7.34.01,11.01.02,18.35,0,6.47.01,8.38.12,13.89-8.84,0-13.27,0-22.11,0,.09-5.58.09-7.79.08-14.95-.02-13.64-.03-20.46-.04-34.11Z"/>
  <path class="st0" d="M365.15,376.49c0-5.61,0-8.52-.11-14.46,8.85-.07,13.28-.1,22.13-.14-.1,5.19-.1,7.68-.09,14.27,0,8.22,0,12.33,0,20.55,0,6.49,1.6,8.32,7.08,8.32,5.28,0,6.77-1.85,6.77-10.29,0-7.49,0-11.23,0-18.72,0-6.6,0-8.55-.1-14.18,8.85-.03,13.28-.03,22.13-.03-.1,5.74-.1,8.01-.1,15.37,0,14.03,0,21.05,0,35.08,0,5.63,0,8.34.1,13.43-8.49,0-12.73,0-21.21,0-.08-4.5-.12-6.75-.2-11.26-3.58,8.34-8.86,12.55-19.22,12.55-12.95,0-17.23-6.37-17.24-19.1,0-3.13.09-17.05.09-20.61,0-4.32,0-6.47,0-10.79Z"/>
  <path class="st0" d="M429.02,405.23c8.41-.17,12.61-.25,21.02-.41,0,.48,0,.71,0,1.19,0,3.46,1.39,4.87,7.97,4.88,4.68,0,5.58-1.4,5.58-3.88,0-2.05-.74-3.21-11.55-4.99-18.18-2.99-21.92-6.85-21.92-20.81,0-14.29,6.28-20.7,26.91-20.59,22.82.12,26.41,6.23,26.4,20.78-8.49.12-12.73.18-21.22.32,0-.43,0-.65,0-1.08,0-3.13-1.29-4.01-5.38-4.02-3.89-.02-5.18.63-5.18,3.77,0,2.92,1.41,3.37,11.26,4.8,19.39,2.8,22.81,7.66,22.8,20.05-.01,15.95-5.79,21.77-27.7,21.77-23.01,0-28.98-4.44-28.98-21.76Z"/>
  <path class="st0" d="M492.2,379.3c0-7.21,0-12.7-.09-17.12,8.85.09,13.27.14,22.12.26-.1,4.29-.11,9.97-.12,17.26-.01,11.97-.02,17.95-.03,29.92,0,6.76-.01,11.47.08,16.08-8.84,0-13.27,0-22.11,0,.1-4.63.11-9.37.11-16.04,0-12.14.01-18.22.02-30.36Z"/>
  <path class="st0" d="M522.17,395.73c0-1.28,0-1.93,0-3.21-.53-20.31,9.89-31.34,30.02-30.74,18.45.55,30.89,8.77,29.95,28.72-8.69.05-13.03.08-21.71.15-.19-6.04-1.58-8.29-8.16-8.37-6.08-.08-7.97,1.71-7.98,11.93,0,.04,0,.06,0,.11-.01,10.11,2.08,12.04,8.15,12.08,6.57.04,8.17-2.28,8.18-8.1,8.69.25,13.03.38,21.71.63.77,19.63-12.03,27.86-30.21,28.07-20.16.24-30.51-10.92-29.95-31.26Z"/>
</svg>